<svg viewBox="0 0 214.03 41.21" xmlns="http://www.w3.org/2000/svg" xmlns:xlink="http://www.w3.org/1999/xlink" id="图层_1" overflow="hidden"><defs></defs><path d="M345.63 310.52 336.17 310.52 328.77 296.06C328.524 295.467 328.326 294.855 328.18 294.23L328.07 294.23 325.47 310.52 318 310.52 323.31 277.24 330.8 277.24 328.27 293 328.38 293C328.64 292.57 329.04 291.95 329.61 291.14L341 277.24 349.93 277.24 335.8 293.11Z" fill="#00A73C" transform="translate(-317.97 -276.68)"/><path d="M362.78 311.1C358.02 311.1 354.387 309.547 351.88 306.44 349.373 303.333 348.517 299.293 349.31 294.32 349.958 289.423 352.296 284.907 355.92 281.55 359.426 278.322 364.045 276.577 368.81 276.68 373.563 276.68 377.153 278.237 379.58 281.35 382.007 284.463 382.813 288.56 382 293.64 381.362 298.499 379.033 302.978 375.42 306.29 371.979 309.454 367.454 311.176 362.78 311.1ZM367.57 283.1C364.996 283.083 362.54 284.176 360.83 286.1 358.869 288.285 357.623 291.017 357.26 293.93 356.74 297.23 357.09 299.84 358.34 301.75 359.552 303.659 361.703 304.761 363.96 304.63 366.451 304.668 368.843 303.655 370.55 301.84 372.505 299.682 373.733 296.964 374.06 294.07 374.61 290.62 374.31 287.94 373.14 286.02 371.975 284.085 369.823 282.968 367.57 283.13Z" fill="#00A73C" transform="translate(-317.97 -276.68)"/><path d="M398.83 311.1C394.063 311.1 390.427 309.547 387.92 306.44 385.413 303.333 384.557 299.293 385.35 294.32 386.009 289.418 388.362 284.901 392 281.55 395.506 278.322 400.125 276.577 404.89 276.68 409.643 276.68 413.237 278.237 415.67 281.35 418.103 284.463 418.913 288.56 418.1 293.64 417.466 298.501 415.136 302.981 411.52 306.29 408.067 309.467 403.521 311.19 398.83 311.1ZM403.61 283.1C401.036 283.083 398.58 284.176 396.87 286.1 394.909 288.285 393.663 291.017 393.3 293.93 392.78 297.23 393.13 299.84 394.38 301.75 395.592 303.659 397.743 304.761 400 304.63 402.491 304.668 404.883 303.655 406.59 301.84 408.545 299.682 409.773 296.964 410.1 294.07 410.65 290.62 410.35 287.94 409.18 286.02 408.015 284.085 405.863 282.968 403.61 283.13Z" fill="#00A73C" transform="translate(-317.97 -276.68)"/><path d="M458.81 310.52 451.41 310.52 454.59 290.6C454.93 288.447 455.4 286.073 456 283.48L455.81 283.48C455.315 284.982 454.734 286.455 454.07 287.89L442.66 310.52 436.54 310.52 432.17 288.12C431.981 286.58 431.881 285.031 431.87 283.48L431.66 283.48C431.33 286.76 430.98 289.64 430.58 292.11L427.65 310.52 420.89 310.52 426.2 277.24 437.2 277.24 440.83 297C441.117 298.57 441.261 300.164 441.26 301.76L441.4 301.76C442.113 299.92 442.807 298.32 443.48 296.96L453.42 277.28 464.12 277.28Z" fill="#00A73C" transform="translate(-317.97 -276.68)"/><path d="M495.64 310.52 487.47 310.52 486.29 303.11 474.45 303.11 470.93 310.52 462.8 310.52 480.23 277.24 489.11 277.24ZM485.49 297.36 483.7 286.17C483.563 285.176 483.536 284.17 483.62 283.17L483.43 283.17C483.201 284.169 482.865 285.142 482.43 286.07L477 297.36Z" fill="#00A73C" transform="translate(-317.97 -276.68)"/><path d="M527 310.52 518.11 310.52 514.11 299.68C513.907 298.954 513.8 298.204 513.79 297.45L513.7 297.45C513.37 298.247 512.99 299.022 512.56 299.77L500.56 317.89 490.56 317.89 509.4 293.89 502.35 277.25 511.47 277.25 514.64 287.25C514.909 288.165 515.093 289.102 515.19 290.05L515.28 290.05C515.57 289.4 516.07 288.44 516.79 287.15L523.66 277.27 532 277.27 519.39 293.77Z" fill="#00A73C" transform="translate(-317.97 -276.68)"/></svg>